@startuml
abstract class model.DBModel
annotation java.lang.Override
annotation java.lang.SuppressWarnings
class control.JDBCDemo
class java.lang.Integer
class java.sql.Connection
class java.sql.DriverManager
class java.sql.PreparedStatement
class java.sql.ResultSet
class java.sql.SQLException
class java.util.ArrayList
class java.util.Vector
class java.util.logging.Level
class java.util.logging.Logger
class javax.swing.JFrame
class javax.swing.JOptionPane
class javax.swing.table.DefaultTableModel
class model.Department
class model.EmpProj
class model.Employee
class model.Project
class model.another.EmployeeData
class model.another.SqlRecord
class model.another.StaticDemo
class view.EmployeeFrame
class view.ProjectFrame
interface model.another.DML
interface view.Form
model.DBModel ..> java.sql.Connection
model.DBModel ..> java.sql.DriverManager
model.DBModel ..> java.sql.SQLException
model.DBModel ..> java.util.ArrayList
control.JDBCDemo ..> java.sql.SQLException
control.JDBCDemo ..> java.util.ArrayList
model.Department --|> model.DBModel
model.Department ..> java.lang.Override
model.Department ..> java.sql.PreparedStatement
model.Department ..> java.sql.ResultSet
model.Department ..> java.sql.SQLException
model.Department ..> java.util.ArrayList
model.EmpProj --|> model.DBModel
model.EmpProj ..> java.lang.Override
model.EmpProj ..> java.sql.PreparedStatement
model.EmpProj ..> java.sql.ResultSet
model.EmpProj ..> java.sql.SQLException
model.EmpProj ..> java.util.ArrayList
model.Employee --|> model.DBModel
model.Employee ..> java.lang.Override
model.Employee ..> java.sql.PreparedStatement
model.Employee ..> java.sql.ResultSet
model.Employee ..> java.sql.SQLException
model.Employee ..> java.util.ArrayList
model.Project --|> model.DBModel
model.Project ..> java.lang.Override
model.Project ..> java.sql.PreparedStatement
model.Project ..> java.sql.ResultSet
model.Project ..> java.sql.SQLException
model.Project ..> java.util.ArrayList
model.another.EmployeeData ..> java.lang.Override
model.another.EmployeeData ..> java.util.logging.Level
model.another.EmployeeData ..> java.util.logging.Logger
model.another.EmployeeData ..> model.Employee
model.another.EmployeeData --|> model.another.SqlRecord
view.EmployeeFrame ..> java.lang.SuppressWarnings
view.EmployeeFrame ..> java.lang.Integer
view.EmployeeFrame ..> java.util.ArrayList
view.EmployeeFrame ..> java.util.Vector
view.EmployeeFrame ..> java.util.logging.Level
view.EmployeeFrame ..> java.util.logging.Logger
view.EmployeeFrame --|> javax.swing.JFrame
view.EmployeeFrame ..> javax.swing.JOptionPane
view.EmployeeFrame ..> javax.swing.table.DefaultTableModel
view.EmployeeFrame ..> model.Employee
view.ProjectFrame ..> java.lang.Override
view.ProjectFrame ..> java.lang.SuppressWarnings
view.ProjectFrame ..> java.lang.Integer
view.ProjectFrame ..> java.sql.SQLException
view.ProjectFrame ..> java.util.ArrayList
view.ProjectFrame ..> java.util.logging.Level
view.ProjectFrame ..> java.util.logging.Logger
view.ProjectFrame --|> javax.swing.JFrame
view.ProjectFrame ..> javax.swing.JOptionPane
view.ProjectFrame ..> javax.swing.table.DefaultTableModel
view.ProjectFrame ..> model.Project
view.ProjectFrame --|> view.Form
model.another.DML ..> java.sql.SQLException
@enduml